<?xml version="1.0" encoding="iso-8859-1"?>
<!-- Generator: Adobe Illustrator 16.0.0, SVG Export Plug-In . SVG Version: 6.00 Build 0)  -->
<!DOCTYPE svg PUBLIC "-//W3C//DTD SVG 1.1//EN" "http://www.w3.org/Graphics/SVG/1.1/DTD/svg11.dtd">
<svg version="1.1" id="Capa_1" xmlns="http://www.w3.org/2000/svg" xmlns:xlink="http://www.w3.org/1999/xlink" x="0px" y="0px"
	 width="968.497px" height="968.497px" viewBox="0 0 968.497 968.497" style="enable-background:new 0 0 968.497 968.497;"
	 xml:space="preserve">
<g>
	<g>
		<path d="M162.4,81.999c0-21.3-17.2-38.5-38.5-38.5H83.7c-21.3,0-38.5,17.2-38.5,38.5v14.6h117.2V81.999z"/>
		<path d="M42.8,628.098H375.2l29.4-82.5c-7.8,1.1-15.7,1.701-23.7,1.701c-95.3,0-172.5-78.901-172.5-176.201
			s77.3-176.2,172.5-176.2c82.8,0,152,59.6,168.7,139.1l212.301,75.6v-238.3c0-24.2-19.201-43.8-42.801-43.8H565.9l-17.701-90.3
			c-4-20.4-21.6-35.2-42-35.2H385.5H254.9c-20.4,0-38,14.7-42,35.2l-17.7,90.3h-32.7H45.2h-2.4c-23.7,0-42.8,19.6-42.8,43.8v413.1
			C0,608.499,19.2,628.098,42.8,628.098z"/>
		<path d="M945.199,506.598l-152.398-54.299l-15.5-5.5l-15.5-5.5l-208.5-74.3l-14.301-5.1c-3.9-1.4-7.801-2-11.699-2
			c-14.4,0-27.9,8.9-33,23.3L439.6,536.799l-32.5,91.299l-5.5,15.5l-5.5,15.5l-41.4,116c-6.5,18.201,3,38.201,21.2,44.701
			l406.2,144.699c3.9,1.4,7.801,2,11.701,2c14.398,0,27.898-8.9,33-23.301l139.6-392C973,533.098,963.5,513.098,945.199,506.598z
			 M465.8,656.999l79.7-223.7l349.6,124.6L815.4,781.598L465.8,656.999z"/>
		<path d="M761.9,549.299c-7.801-5-16.9-8.201-26.4-8.801c-11.9-0.699-23.4,2.801-33.4,9.1c-3.699-11.199-10.4-21.199-20.1-28.199
			c-26-18.701-66.5-11.4-81.4,17.799c-0.4,0.701-0.699,1.5-1.1,2.301c-9.199,20.699-5.1,44.801,4.1,64.801
			c3.5,7.6,7.701,14.799,12.301,21.799c3.4,5.201,7,10.4,10.6,15.5c3.699,5.1,7.301,10.301,10.9,15.5c2.199,3.201,4.4,6.4,6.4,9.701
			c3.398,5.299,7.398,11,9.799,16.799c5.5-3,12.201-4.9,18.201-6.9c23.5-7.799,48.299-12,70.6-23c1.5-0.699,2.9-1.5,4.299-2.199
			c18.102-9.801,34.301-25.1,39.801-45.301c0.199-0.799,0.4-1.6,0.6-2.5c3.301-15.199-1-30.299-9.9-42.1
			C773.1,557.999,767.801,553.098,761.9,549.299z"/>
	</g>
</g>
<g>
</g>
<g>
</g>
<g>
</g>
<g>
</g>
<g>
</g>
<g>
</g>
<g>
</g>
<g>
</g>
<g>
</g>
<g>
</g>
<g>
</g>
<g>
</g>
<g>
</g>
<g>
</g>
<g>
</g>
</svg>
